<?xml version="1.0" encoding="utf-8"?>
<!-- Generator: Adobe Illustrator 26.0.3, SVG Export Plug-In . SVG Version: 6.00 Build 0)  -->
<svg version="1.1" id="Layer_1" xmlns="http://www.w3.org/2000/svg" xmlns:xlink="http://www.w3.org/1999/xlink" x="0px" y="0px"
	 viewBox="0 0 572 110" style="enable-background:new 0 0 572 110;" xml:space="preserve">
<style type="text/css">
	.st0{fill:#ffffff;}
	.st1{fill:#00CE7C;}
	.st2{opacity:0.41;fill:url(#SVGID_1_);}
	.st3{opacity:0.41;fill:url(#SVGID_00000044876592332487050960000003669970679869440665_);}
</style>
<g>
	<path class="st0" d="M130.3,65.7h-20.4c-1.4,4.2-2.7,8.3-4,12.2h-6.6c4.6-13.9,10.5-30,16.3-43.9H126c4.7,14.5,11.1,32,16.2,43.9
		H135C133.6,74.3,131.9,70.1,130.3,65.7z M119.6,39.3c-2.7,6.7-5.4,13.8-7.9,20.9h16.6c-2.5-6.9-4.9-14.2-7-20.9H119.6z"/>
	<path class="st0" d="M154.2,34v38.3h21.7v5.6h-28.1V34H154.2z"/>
	<path class="st0" d="M182.3,77.9V34h21.2c9.5,0,12.4,6.6,12.4,14.7c0,7.2-3.3,13.9-12.1,13.9h-15.1v15.3H182.3z M202.3,57.1
		c4.3,0,6.5-3.2,6.5-8.5c0-5.9-2.1-9.2-6.2-9.2h-13.9v17.7H202.3z"/>
	<path class="st0" d="M230.4,77.9H224V34h6.4v17.6h21V34h6.4v43.9h-6.4V57.4h-21V77.9z"/>
	<path class="st0" d="M294.7,65.7h-20.4c-1.4,4.2-2.7,8.3-4,12.2h-6.6c4.6-13.9,10.5-30,16.3-43.9h10.4c4.7,14.5,11.1,32,16.2,43.9
		h-7.2C298,74.3,296.3,70.1,294.7,65.7z M284.1,39.3c-2.7,6.7-5.4,13.8-7.9,20.9h16.6c-2.5-6.9-4.9-14.2-7-20.9H284.1z"/>
	<path class="st1" d="M346.2,65.7c0,8.4-4.1,12.2-11.2,12.2h-22.9V34h22.4c8.8,0,10.6,4.5,10.6,10.5c0,5.5-1.1,9.3-8.9,10
		C344.6,54.8,346.2,59.4,346.2,65.7z M318.6,52h15.1c3.7,0,4.8-2.8,4.8-6.4c0-4-1.1-6.2-4.8-6.2h-15.1V52z M334.1,72.5
		c3.8,0,5.2-2.8,5.2-7.4c0-4.7-1.7-7.9-5.5-7.9h-15.3v15.3H334.1z"/>
	<path class="st1" d="M381.3,65.7H361c-1.4,4.2-2.7,8.3-4,12.2h-6.6c4.6-13.9,10.5-30,16.3-43.9h10.4c4.7,14.5,11.1,32,16.2,43.9
		h-7.2C384.6,74.3,382.9,70.1,381.3,65.7z M370.7,39.3c-2.7,6.7-5.4,13.8-7.9,20.9h16.6c-2.5-6.9-4.9-14.2-7-20.9H370.7z"/>
	<path class="st1" d="M403.8,77.9V39.5h-15.1V34h36.6v5.5h-15v38.4H403.8z"/>
	<path class="st1" d="M462.4,34v5.5h-24.6v12.5h17.5v5.4h-17.5v15.1h24.6v5.5h-30.9V34H462.4z"/>
	<path class="st1" d="M506,34h8.6v43.9h-6.3V42.1c-4.7,10.1-9.5,21.5-13.6,31.4h-4.9c-4-10-8.8-21.5-13.3-31.4v35.8h-6.2V34h9.1
		c4.7,9.8,9.4,20.5,13.3,30.6C496.5,54.4,501.3,43.7,506,34z"/>
</g>
<g>
	<polyline class="st1" points="72.6,42.3 87.7,42.3 75.3,69.9 79.9,80.4 101.1,33.5 91.5,33.5 91.5,33.6 68.8,33.6 68.6,33.2 
		68.6,33.2 62,18.3 52.5,18.3 63.1,42.3 63.1,42.3 	"/>
	
		<linearGradient id="SVGID_1_" gradientUnits="userSpaceOnUse" x1="785.4224" y1="659.1973" x2="810.6193" y2="643.2499" gradientTransform="matrix(-1 -6.813990e-03 6.813990e-03 -1 867.5348 725.3654)">
		<stop  offset="0" style="stop-color:#FFFFFF"/>
		<stop  offset="1" style="stop-color:#000000"/>
	</linearGradient>
	<polygon class="st2" points="79.9,80.5 94,49.7 86.3,45.6 75.4,70 	"/>
</g>
<g>
	<polyline class="st0" points="60,56.5 44.9,56.5 57.3,28.8 52.6,18.3 31.5,65.2 41,65.2 41.1,65.2 63.8,65.2 64,65.6 64,65.6 
		70.6,80.5 80,80.5 69.5,56.5 69.5,56.5 	"/>
	
		<linearGradient id="SVGID_00000152955662906048205870000005431884565162743725_" gradientUnits="userSpaceOnUse" x1="593.8636" y1="617.376" x2="619.0604" y2="601.4286" gradientTransform="matrix(1 6.813990e-03 -6.813990e-03 1 -543.6903 -583.4756)">
		<stop  offset="0" style="stop-color:#FFFFFF"/>
		<stop  offset="1" style="stop-color:#000000"/>
	</linearGradient>
	<polygon style="opacity:0.41;fill:url(#SVGID_00000152955662906048205870000005431884565162743725_);" points="52.7,18.3 
		38.5,49.1 46.3,53.2 57.2,28.8 	"/>
</g>
</svg>
